<svg width="175" height="47" viewBox="0 0 175 47" fill="none" xmlns="http://www.w3.org/2000/svg">
<path d="M56.9266 6.15278C56.9266 7.55571 56.5553 8.67289 55.8117 9.50628C54.9669 10.4973 53.8661 10.9931 52.5127 10.9931C51.2166 10.9931 50.1147 10.4908 49.2085 9.48468C48.3007 8.47933 47.8477 7.23263 47.8477 5.74519C47.8477 4.25707 48.3007 3.01113 49.2085 2.00495C50.1147 0.999671 51.2166 0.496582 52.5127 0.496582C53.1558 0.496582 53.7715 0.637311 54.356 0.917943C54.9406 1.19925 55.4095 1.57267 55.7603 2.04032L54.971 2.92398C54.3765 2.12927 53.558 1.73222 52.5127 1.73222C51.5675 1.73222 50.7502 2.10383 50.0604 2.84752C49.3705 3.59195 49.0256 4.55734 49.0256 5.74519C49.0256 6.93311 49.3705 7.89843 50.0604 8.64294C50.7502 9.38662 51.5674 9.75816 52.5127 9.75816C53.5154 9.75816 54.3514 9.38459 55.0207 8.63639C55.4552 8.14896 55.7064 7.47142 55.7736 6.60138H52.5126V5.39457H56.864C56.906 5.65699 56.9265 5.9088 56.9265 6.15278" fill="white"/>
<path d="M56.9268 6.15287H56.7771C56.7759 7.52382 56.418 8.58862 55.7059 9.38799L55.7044 9.38935L55.7037 9.3907C54.8858 10.3475 53.8345 10.8237 52.5128 10.8258C51.2513 10.8237 50.1955 10.3423 49.3138 9.36639C48.4341 8.38851 47.9991 7.19472 47.9974 5.74528C47.9991 4.29516 48.4341 3.10205 49.3138 2.12484C50.1955 1.14824 51.2513 0.666149 52.5128 0.664117C53.1366 0.664117 53.7306 0.800331 54.297 1.07171C54.8641 1.34519 55.312 1.70356 55.6458 2.14847L55.7604 2.04041L55.6546 1.92203L54.8653 2.80629L54.9711 2.92407L55.0863 2.8169C54.4642 1.98284 53.5909 1.56238 52.5128 1.56486C51.5325 1.56351 50.6702 1.95544 49.9569 2.72735C49.2367 3.50174 48.8749 4.52146 48.8761 5.74528C48.8749 6.96918 49.2367 7.98882 49.9569 8.76329C50.6702 9.53519 51.5325 9.92705 52.5128 9.9257C53.5487 9.92773 54.4316 9.53452 55.1266 8.75486C55.5908 8.23408 55.8539 7.51275 55.9229 6.61585L55.9369 6.43403H52.6625V5.56211H56.8641V5.39466L56.7167 5.42409C56.7577 5.678 56.777 5.91927 56.777 6.15287H57.0763C57.0763 5.89835 57.0552 5.63676 57.0114 5.36471L56.9892 5.22721H52.3632V6.76892H55.7738V6.60147L55.6247 6.5871C55.5587 7.42967 55.319 8.06416 54.915 8.51818C54.272 9.235 53.4827 9.58878 52.5128 9.59081C51.6027 9.58945 50.8304 9.23883 50.1646 8.52262C49.5051 7.80896 49.1771 6.89783 49.1754 5.74528C49.1771 4.59273 49.5051 3.6816 50.1646 2.96794C50.8304 2.25173 51.6026 1.90111 52.5128 1.89975C53.5248 1.90246 54.289 2.27656 54.8567 3.03206L54.9619 3.17204L55.8663 2.15886L55.9633 2.05034L55.8749 1.93309C55.5072 1.44264 55.0173 1.05334 54.4152 0.764358C53.8119 0.474471 53.1753 0.329226 52.5128 0.329226C51.1824 0.327947 50.0342 0.851204 49.1029 1.88673C48.1681 2.92023 47.697 4.21931 47.6982 5.74528C47.697 7.27058 48.1681 8.57041 49.1035 9.6045C50.0342 10.6394 51.1824 11.162 52.5128 11.1607C53.8984 11.162 55.0478 10.6471 55.92 9.62211L55.8118 9.50637L55.9176 9.62482C56.6928 8.7581 57.0774 7.58726 57.0764 6.15287H56.9267H56.9268ZM63.825 1.95604H59.7357V5.14165H63.4234V6.34891H59.7357V9.53452H63.825V10.7688H58.5828V0.721764H63.825V1.95604" fill="white"/>
<path d="M63.8248 1.9558V1.78836H59.5859V5.30885H63.2736V6.18077L59.5859 6.18123V9.70172H63.6752V10.6011H58.7324V0.888968H63.6752V1.9558H63.8248V1.78836V1.9558H63.9745V0.554077H58.4331V10.936H63.9745V9.36683H59.8852V6.51612H63.573V4.97396H59.8852V2.12325H63.9745V1.9558H63.8248V1.9558ZM68.6905 10.7686H67.5359V1.95573H65.0279V0.721447H71.1985V1.95573H68.6905V10.7685" fill="white"/>
<path d="M68.6906 10.7686V10.6011H67.6857V1.78836H65.1777V0.889044H71.0489V1.78836H68.541V10.7686H68.6906V10.6011V10.7686H68.8403V2.12325H71.3483V0.554077H64.8784V2.12317H67.3864V10.9359H68.8403V10.7685H68.6906V10.7686ZM75.6632 10.7686V0.721447H76.8167V10.7685H75.6632" fill="white"/>
<path d="M75.6628 10.7686H75.8125V0.888968H76.6665V10.6011H75.6628V10.7686H75.8125H75.6628V10.936H76.9659V0.554077H75.5132V10.936H75.6628V10.7686V10.7686ZM81.9344 10.7686H80.7798V1.95573H78.2719V0.721447H84.4424V1.95573H81.9344V10.7685" fill="white"/>
<path d="M81.9346 10.7688V10.6013H80.9297V1.78851H78.4219V0.889194H84.2929V1.78851H81.785V10.7687H81.9346V10.6013V10.7687H82.0843V2.1234H84.5923V0.554228H78.1226V2.12332H80.6304V10.9361H82.0843V10.7686H81.9346V10.7688ZM90.3916 8.62924C91.0562 9.38203 91.8695 9.75809 92.8312 9.75809C93.7928 9.75809 94.6065 9.38203 95.2701 8.62924C95.9354 7.87638 96.2687 6.914 96.2687 5.74519C96.2687 4.57646 95.9354 3.61408 95.2701 2.86121C94.6065 2.10835 93.7928 1.73222 92.8312 1.73222C91.8695 1.73222 91.0562 2.10835 90.3916 2.86121C89.728 3.61408 89.3949 4.57638 89.3949 5.74519C89.3949 6.914 89.728 7.87638 90.3916 8.62924ZM96.1236 9.47031C95.2408 10.486 94.143 10.9931 92.8312 10.9931C91.5181 10.9931 90.4207 10.486 89.5398 9.47031C88.6564 8.4557 88.2168 7.21374 88.2168 5.74519C88.2168 4.27664 88.6564 3.03445 89.5398 2.02007C90.4208 1.00411 91.5181 0.496582 92.8312 0.496582C94.136 0.496582 95.2309 1.00682 96.1178 2.02662C97.0034 3.04634 97.4466 4.28582 97.4466 5.74519C97.4466 7.21374 97.0045 8.4557 96.1236 9.47031Z" fill="white"/>
<path d="M90.3917 8.62933L90.2853 8.74704C90.9746 9.53001 91.8346 9.92774 92.8313 9.9257C93.8274 9.92774 94.6885 9.53001 95.3767 8.74704C96.0705 7.96332 96.4195 6.94946 96.4184 5.74528C96.4194 4.54118 96.0705 3.52725 95.3767 2.74353C94.6885 1.96056 93.8274 1.56291 92.8313 1.56486C91.8346 1.56291 90.9746 1.96056 90.2853 2.74353C89.5932 3.52725 89.2435 4.54118 89.2453 5.74528C89.2435 6.94939 89.5932 7.96332 90.2853 8.74704L90.3917 8.62933L90.4982 8.51156C89.8633 7.78872 89.5459 6.87947 89.5446 5.74528C89.5459 4.61117 89.8633 3.70192 90.4981 2.97901C91.1388 2.25632 91.904 1.90179 92.8313 1.89983C93.7578 1.90179 94.5248 2.25632 95.1639 2.97901C95.7999 3.70192 96.1174 4.61117 96.1185 5.74528C96.1174 6.8794 95.7999 7.78872 95.1639 8.51156C94.5248 9.23432 93.7579 9.58878 92.8313 9.59074C91.904 9.58878 91.1388 9.23432 90.4981 8.51156L90.3917 8.62933ZM96.1238 9.4704L96.0168 9.35405C95.1586 10.3378 94.1092 10.8238 92.8313 10.8258C91.5528 10.8237 90.5034 10.3378 89.6468 9.35405L89.6428 9.34879L89.6468 9.35405C88.7905 8.36692 88.3679 7.17651 88.3667 5.74528C88.3679 4.31406 88.7905 3.12365 89.6468 2.13659C90.5034 1.15276 91.5527 0.666152 92.8313 0.664195C94.101 0.666152 95.148 1.15479 96.0109 2.14374C96.8703 3.13539 97.2953 4.32392 97.2971 5.74528C97.2953 7.17651 96.8715 8.36692 96.0168 9.35405L96.1238 9.4704L96.2314 9.58675C97.1386 8.54422 97.5975 7.25101 97.5965 5.74528C97.5975 4.24813 97.1369 2.95756 96.2254 1.91037C95.3135 0.859033 94.1712 0.327422 92.8313 0.329228C91.4844 0.327422 90.3386 0.85655 89.4324 1.90382V1.90307C88.5234 2.94635 88.0662 4.23955 88.0674 5.74528C88.0662 7.25101 88.5234 8.54422 89.4324 9.58743L89.4365 9.59217L89.4324 9.58675C90.3386 10.634 91.4844 11.162 92.8313 11.1607C94.1776 11.162 95.3234 10.634 96.2314 9.58675L96.1238 9.4704V9.4704ZM99.066 10.7689V0.72169H100.47L104.834 8.5376H104.884L104.834 6.6014V0.72169H105.989V10.7687H104.785L100.219 2.57405H100.169L100.219 4.51093V10.7687H99.0661" fill="white"/>
<path d="M99.0658 10.7686H99.2155V0.888968H100.387L104.751 8.70488H105.037L104.984 6.59875V0.889044H105.839V10.6011H104.867L100.302 2.40644H100.015L100.069 4.51347V10.6011H99.0658V10.7686H99.2155H99.0658V10.936H100.368V4.50813L100.319 2.56937L100.169 2.57388V2.74133H100.219V2.57388L100.092 2.66291L104.701 10.936H106.138V0.554077H104.684V6.60319L104.734 8.54194L104.884 8.53743V8.36998H104.834V8.53743L104.961 8.44855L100.553 0.554077H98.9162V10.936H99.0659V10.7686L99.0658 10.7686ZM146 39.2352H148.792V18.3019H146L146 39.2352ZM171.153 25.8426L167.952 34.9182H167.856L164.533 25.8425H161.525L166.507 38.5274L163.667 45.5833H166.581L174.258 25.8425L171.153 25.8426ZM155.316 36.8576C154.4 36.8576 153.125 36.346 153.125 35.0798C153.125 33.464 154.714 32.8447 156.085 32.8447C157.314 32.8447 157.89 33.1409 158.637 33.5453C158.42 35.484 156.928 36.8576 155.316 36.8576V36.8576ZM155.653 25.3846C153.631 25.3846 151.537 26.3813 150.671 28.5897L153.149 29.7475C153.679 28.5897 154.665 28.2122 155.701 28.2122C157.145 28.2122 158.613 29.1823 158.637 30.9059V31.1211C158.131 30.7979 157.049 30.3133 155.724 30.3133C153.053 30.3133 150.332 31.9557 150.332 35.026C150.332 37.827 152.523 39.6316 154.978 39.6316C156.856 39.6316 157.89 38.689 158.541 37.585H158.637V39.2006H161.332V31.1746C161.332 27.4588 158.854 25.3846 155.653 25.3846V25.3846ZM138.394 28.3908H134.422V21.2154H138.394C140.482 21.2154 141.667 23.1494 141.667 24.803C141.667 26.4252 140.482 28.3908 138.394 28.3908ZM138.322 18.3019H131.631V39.2352H134.422V31.3042H138.322C141.417 31.3042 144.46 28.797 144.46 24.803C144.46 20.8091 141.417 18.3019 138.322 18.3019V18.3019ZM101.834 36.8615C99.9047 36.8615 98.2894 35.0542 98.2894 32.5719C98.2894 30.0635 99.9047 28.2287 101.834 28.2287C103.739 28.2287 105.233 30.0634 105.233 32.5719C105.233 35.0542 103.739 36.8615 101.834 36.8615H101.834ZM105.04 27.0147H104.944C104.317 26.1786 103.111 25.4232 101.593 25.4232C98.4099 25.4232 95.4927 28.5524 95.4927 32.5719C95.4927 36.5646 98.4098 39.667 101.593 39.667C103.111 39.667 104.317 38.9114 104.944 38.0486H105.04V39.0736C105.04 41.7987 103.739 43.2554 101.641 43.2554C99.9292 43.2554 98.8683 41.8791 98.4338 40.7193L95.9991 41.8523C96.6982 43.7407 98.5549 46.0609 101.641 46.0609C104.92 46.0609 107.693 43.9022 107.693 38.642V25.8549H105.04V27.0147ZM109.621 39.2352H112.418V18.3011H109.621V39.2352ZM116.541 32.3292C116.469 29.5773 118.446 28.1749 119.868 28.1749C120.978 28.1749 121.918 28.795 122.231 29.6861L116.541 32.3292ZM125.221 29.9554C124.691 28.3633 123.075 25.4232 119.772 25.4232C116.493 25.4232 113.769 28.3097 113.769 32.5451C113.769 36.5378 116.469 39.667 120.085 39.667C123.003 39.667 124.691 37.6705 125.39 36.5108L123.22 34.8919C122.497 36.0791 121.508 36.8615 120.085 36.8615C118.663 36.8615 117.65 36.1328 116.999 34.7035L125.51 30.7646L125.221 29.9554ZM57.4135 27.6085V30.6298H63.8749C63.6821 32.3292 63.1757 33.5701 62.4041 34.4334C61.4641 35.4859 59.9933 36.6456 57.4134 36.6456C53.435 36.6456 50.325 33.0578 50.325 28.6066C50.325 24.1555 53.4351 20.5672 57.4135 20.5672C59.5594 20.5672 61.1262 21.5116 62.2836 22.7255L64.1883 20.5946C62.5731 18.8677 60.427 17.5459 57.4135 17.5459C51.9643 17.5459 47.3833 22.5098 47.3833 28.6066C47.3833 34.7035 51.9643 39.667 57.4135 39.667C60.3551 39.667 62.5731 38.5884 64.3088 36.5646C66.0931 34.5682 66.6478 31.7628 66.6478 29.4969C66.6478 28.795 66.5998 28.1481 66.5028 27.6085H57.4135ZM73.994 36.8615C72.0647 36.8615 70.401 35.0809 70.401 32.5451C70.401 29.9822 72.0647 28.2287 73.994 28.2287C75.9225 28.2287 77.5862 29.9822 77.5862 32.5451C77.5862 35.081 75.9225 36.8615 73.994 36.8615ZM73.994 25.4232C70.4734 25.4232 67.6042 28.4175 67.6042 32.5451C67.6042 36.6456 70.4734 39.667 73.994 39.667C77.5138 39.667 80.383 36.6456 80.383 32.5451C80.383 28.4175 77.5138 25.4232 73.994 25.4232ZM87.9319 36.8615C86.0035 36.8615 84.3395 35.0809 84.3395 32.5451C84.3395 29.9822 86.0035 28.2287 87.932 28.2287C89.8606 28.2287 91.5244 29.9822 91.5244 32.5451C91.5244 35.081 89.8606 36.8615 87.932 36.8615H87.9319ZM87.9319 25.4232C84.4116 25.4232 81.5429 28.4175 81.5429 32.5451C81.5429 36.6456 84.4116 39.667 87.932 39.667C91.4519 39.667 94.3213 36.6456 94.3213 32.5451C94.3213 28.4175 91.4519 25.4232 87.932 25.4232H87.9319Z" fill="white"/>
<path d="M1.68777 1.74548C1.18553 2.25248 0.885742 3.09814 0.885742 4.22066V3.9669V41.0089V40.7649C0.885742 41.8015 1.14289 42.6021 1.57836 43.1177L1.68952 43.2368V43.2373C2.042 43.5932 2.49397 43.7821 3.01197 43.7815C3.51812 43.7815 4.08759 43.601 4.68858 43.2197L26.4118 29.4096L33.8736 24.6654C34.8213 24.063 35.3533 23.2859 35.4422 22.4944V22.4911C35.3533 21.6978 34.8213 20.9213 33.8737 20.3188L26.4112 15.5752L4.68865 1.76505C4.08637 1.38312 3.5165 1.2019 3.00901 1.2019C2.49162 1.2019 2.04024 1.39027 1.6879 1.74548H1.68777Z" fill="#00C1FF"/>
<path d="M1.68959 43.2365L1.57836 43.1174C1.14289 42.6019 0.885742 41.8012 0.885742 40.7646V41.0086V3.97578V4.22036C0.885742 3.09783 1.18553 2.25218 1.68777 1.74518L20.2302 22.4915L1.68959 43.2365Z" fill="url(#paint0_linear_1134_432)"/>
<path d="M26.4121 29.4095L20.2305 22.4918L26.4116 15.5752L33.874 20.3188C34.8216 20.9213 35.3536 21.6977 35.4425 22.4911V22.4943C35.3536 23.2859 34.8216 24.063 33.874 24.6653L26.4122 29.4095" fill="url(#paint1_linear_1134_432)"/>
<path d="M3.01226 43.7811C2.49433 43.7817 2.04235 43.5926 1.68994 43.2368V43.2363L20.2305 22.4913L26.4122 29.409L4.68887 43.2193C4.08787 43.6006 3.5184 43.7811 3.01226 43.7811Z" fill="url(#paint2_linear_1134_432)"/>
<path d="M20.2305 22.4921L1.68799 1.74575C2.04046 1.39054 2.49183 1.20217 3.00916 1.20217C3.51665 1.20217 4.08659 1.38331 4.6888 1.76532L26.4115 15.5755L20.2304 22.4921" fill="url(#paint3_linear_1134_432)"/>
<path d="M3.0127 44.0272C2.49476 44.0272 2.04218 43.8382 1.6897 43.4824L1.6891 43.483C1.68765 43.4813 1.68609 43.4798 1.68445 43.4785L1.58804 43.3731C1.58501 43.3698 1.58218 43.3659 1.57861 43.3621L1.68977 43.2377C2.04225 43.5935 2.49416 43.7826 3.01222 43.7819C3.5183 43.7819 4.08777 43.6014 4.68877 43.2201L26.412 29.4099L26.5512 29.5657L26.4103 29.6553L4.6887 43.4647C4.14099 43.8121 3.62003 43.9932 3.14945 44.0234C3.1039 44.0259 3.0583 44.0271 3.0127 44.0271" fill="url(#paint4_linear_1134_432)"/>
<path d="M1.57836 43.3615C1.14289 42.8459 0.885742 42.046 0.885742 41.0086V40.7647C0.885742 41.8013 1.14289 42.6019 1.57836 43.1175L1.68952 43.2365L1.57836 43.3615" fill="url(#paint5_linear_1134_432)"/>
<path d="M26.5508 29.5645L26.4116 29.4087L33.8734 24.6646C34.8211 24.0623 35.3531 23.2851 35.442 22.4936C35.442 22.784 35.3841 23.0745 35.269 23.3571C35.0369 23.9268 34.5716 24.4651 33.8735 24.9092L26.5508 29.5646" fill="url(#paint6_linear_1134_432)"/>
<path d="M35.4421 22.4916C35.3532 21.6981 34.8212 20.9217 33.8736 20.3192L26.4111 15.5757L26.5503 15.4199H26.5509L33.8736 20.0752C34.9183 20.7398 35.4415 21.6156 35.4421 22.4916" fill="url(#paint7_linear_1134_432)"/>
<path d="M0.885742 4.22034V3.96447C0.885742 3.8722 0.887965 3.78197 0.89221 3.69437V3.69038C0.89221 3.68918 0.89221 3.6879 0.892614 3.68654V3.67668C0.937684 2.78377 1.18553 2.08727 1.57836 1.62218L1.68777 1.74508C1.18553 2.25216 0.885742 3.09781 0.885742 4.22034Z" fill="url(#paint8_linear_1134_432)"/>
<path d="M26.4114 15.5752L4.68877 1.76489C4.08656 1.38296 3.51668 1.20182 3.00919 1.20182C2.4918 1.20182 2.04043 1.39019 1.68802 1.7454L1.57861 1.62243C1.61278 1.58196 1.64829 1.54292 1.68506 1.50541C1.6862 1.50405 1.68802 1.5027 1.68917 1.50142C2.03881 1.14892 2.4854 0.960549 2.99814 0.957162H3.00919C3.51668 0.957162 4.08656 1.13838 4.68877 1.52046L26.5512 15.4189L26.5506 15.4194L26.4114 15.5752" fill="url(#paint9_linear_1134_432)"/>
<defs>
<linearGradient id="paint0_linear_1134_432" x1="12.7355" y1="3.58437" x2="-5.00909" y2="19.4947" gradientUnits="userSpaceOnUse">
<stop stop-color="#00A0FF"/>
<stop offset="0.00657" stop-color="#00A1FF"/>
<stop offset="0.2601" stop-color="#00BEFF"/>
<stop offset="0.5122" stop-color="#00D2FF"/>
<stop offset="0.7604" stop-color="#00DFFF"/>
<stop offset="1" stop-color="#00E3FF"/>
</linearGradient>
<linearGradient id="paint1_linear_1134_432" x1="36.5971" y1="22.3723" x2="0.384221" y2="22.3723" gradientUnits="userSpaceOnUse">
<stop stop-color="#FFE000"/>
<stop offset="0.4087" stop-color="#FFBD00"/>
<stop offset="0.7754" stop-color="#FFA500"/>
<stop offset="1" stop-color="#FF9C00"/>
</linearGradient>
<linearGradient id="paint2_linear_1134_432" x1="23.1303" y1="29.0684" x2="-6.91493" y2="55.8112" gradientUnits="userSpaceOnUse">
<stop stop-color="#FF3A44"/>
<stop offset="1" stop-color="#C31162"/>
</linearGradient>
<linearGradient id="paint3_linear_1134_432" x1="-3.09093" y1="-1.32999" x2="10.3018" y2="10.609" gradientUnits="userSpaceOnUse">
<stop stop-color="#32A071"/>
<stop offset="0.0685" stop-color="#2DA771"/>
<stop offset="0.4762" stop-color="#15CF74"/>
<stop offset="0.8009" stop-color="#06E775"/>
<stop offset="1" stop-color="#00F076"/>
</linearGradient>
<linearGradient id="paint4_linear_1134_432" x1="23.1166" y1="33.8678" x2="-0.964521" y2="55.46" gradientUnits="userSpaceOnUse">
<stop stop-color="#CC2E36"/>
<stop offset="1" stop-color="#9C0E4E"/>
</linearGradient>
<linearGradient id="paint5_linear_1134_432" x1="3.35587" y1="3.5844" x2="-12.2769" y2="17.6015" gradientUnits="userSpaceOnUse">
<stop stop-color="#008DE0"/>
<stop offset="0.00657" stop-color="#008DE0"/>
<stop offset="0.2601" stop-color="#00A7E0"/>
<stop offset="0.5122" stop-color="#00B8E0"/>
<stop offset="0.7604" stop-color="#00C4E0"/>
<stop offset="1" stop-color="#00C7E0"/>
</linearGradient>
<linearGradient id="paint6_linear_1134_432" x1="36.5967" y1="22.492" x2="0.383706" y2="22.492" gradientUnits="userSpaceOnUse">
<stop stop-color="#E0C500"/>
<stop offset="0.4087" stop-color="#E0A600"/>
<stop offset="0.7754" stop-color="#E09100"/>
<stop offset="1" stop-color="#E08900"/>
</linearGradient>
<linearGradient id="paint7_linear_1134_432" x1="36.5968" y1="22.4932" x2="0.38394" y2="22.4932" gradientUnits="userSpaceOnUse">
<stop stop-color="#FFE840"/>
<stop offset="0.4087" stop-color="#FFCE40"/>
<stop offset="0.7754" stop-color="#FFBC40"/>
<stop offset="1" stop-color="#FFB540"/>
</linearGradient>
<linearGradient id="paint8_linear_1134_432" x1="3.34059" y1="3.6128" x2="-11.6433" y2="16.4659" gradientUnits="userSpaceOnUse">
<stop stop-color="#40B8FF"/>
<stop offset="0.00657" stop-color="#40B9FF"/>
<stop offset="0.2601" stop-color="#40CEFF"/>
<stop offset="0.5122" stop-color="#40DDFF"/>
<stop offset="0.7604" stop-color="#40E7FF"/>
<stop offset="1" stop-color="#40EAFF"/>
</linearGradient>
<linearGradient id="paint9_linear_1134_432" x1="-3.11798" y1="3.05711" x2="7.63535" y2="12.699" gradientUnits="userSpaceOnUse">
<stop stop-color="#65B895"/>
<stop offset="0.0685" stop-color="#62BD95"/>
<stop offset="0.4762" stop-color="#50DB97"/>
<stop offset="0.8009" stop-color="#44ED98"/>
<stop offset="1" stop-color="#40F498"/>
</linearGradient>
</defs>
</svg>
