<svg width="169" height="43" viewBox="0 0 169 43" fill="none" xmlns="http://www.w3.org/2000/svg">
<path d="M25.8193 19.9941C25.8375 18.5965 26.2118 17.2261 26.9074 16.0105C27.6031 14.7949 28.5974 13.7736 29.798 13.0416C29.0353 11.9612 28.0291 11.0722 26.8594 10.445C25.6896 9.81779 24.3886 9.46974 23.0595 9.42848C20.2242 9.13326 17.4757 11.111 16.0308 11.111C14.5582 11.111 12.3337 9.45778 9.9384 9.50667C8.38901 9.55629 6.879 10.0031 5.55549 10.8036C4.23198 11.6041 3.14011 12.731 2.38628 14.0744C-0.879048 19.6815 1.55661 27.9217 4.68467 32.4539C6.24963 34.6733 8.07848 37.1522 10.4718 37.0643C12.8135 36.968 13.6881 35.5832 16.5152 35.5832C19.3158 35.5832 20.1364 37.0643 22.5781 37.0084C25.0911 36.968 26.6743 34.7793 28.1844 32.539C29.3088 30.9576 30.174 29.2099 30.748 27.3606C29.2881 26.7482 28.0422 25.723 27.1657 24.4131C26.2893 23.1031 25.821 21.5662 25.8193 19.9941ZM21.2073 6.44769C22.5775 4.81638 23.2525 2.71961 23.089 0.602667C20.9957 0.820715 19.0621 1.81295 17.6734 3.38167C16.9944 4.14804 16.4744 5.03961 16.1431 6.00541C15.8117 6.97122 15.6756 7.99233 15.7424 9.01035C16.7894 9.02105 17.8253 8.79598 18.7719 8.35208C19.7185 7.90819 20.5512 7.25704 21.2073 6.44769ZM55.4224 31.446H47.4306L45.5114 37.0663H42.1262L49.696 16.2723H53.2129L60.7826 37.0663H57.3399L55.4224 31.446ZM48.2582 28.8524H54.593L51.4702 19.731H51.3827L48.2582 28.8524ZM77.1305 29.487C77.1305 34.1981 74.588 37.2249 70.7513 37.2249C69.7794 37.2754 68.8128 37.0533 67.9622 36.5842C67.1115 36.1151 66.4113 35.4179 65.9416 34.5725H65.869V42.0816H62.7314V21.9059H65.7686V24.4275H65.8263C66.3176 23.5861 67.0296 22.8926 67.8867 22.4206C68.7437 21.9487 69.7138 21.716 70.6936 21.7473C74.5732 21.7473 77.1305 24.7889 77.1305 29.4869V29.487ZM73.9054 29.487C73.9054 26.4177 72.3062 24.3997 69.8659 24.3997C67.4684 24.3997 65.856 26.46 65.856 29.4869C65.856 32.5417 67.4684 34.5874 69.8659 34.5874C72.3062 34.5874 73.9054 32.5842 73.9054 29.4869V29.487ZM93.9549 29.487C93.9549 34.1981 91.4126 37.2249 87.5757 37.2249C86.6038 37.2753 85.6372 37.0533 84.7866 36.5842C83.936 36.1151 83.2358 35.4179 82.7662 34.5725H82.6936V42.0816H79.5559V21.9059H82.593V24.4275H82.6507C83.1419 23.5861 83.854 22.8926 84.711 22.4206C85.5681 21.9487 86.5382 21.716 87.518 21.7473C91.3977 21.7473 93.9549 24.7889 93.9549 29.4869V29.487ZM90.7299 29.487C90.7299 26.4177 89.1305 24.3997 86.6903 24.3997C84.2928 24.3997 82.6804 26.46 82.6804 29.4869C82.6804 32.5417 84.2928 34.5874 86.6903 34.5874C89.1305 34.5874 90.7299 32.5842 90.7299 29.4869V29.487ZM105.075 31.2727C105.307 33.3347 107.327 34.6887 110.087 34.6887C112.732 34.6887 114.634 33.3347 114.634 31.4753C114.634 29.8613 113.487 28.8949 110.77 28.2327L108.052 27.5834C104.202 26.6611 102.415 24.8754 102.415 21.9777C102.415 18.3899 105.568 15.9257 110.044 15.9257C114.474 15.9257 117.512 18.3899 117.614 21.9777H114.446C114.257 19.9027 112.527 18.65 109.999 18.65C107.472 18.65 105.742 19.9174 105.742 21.7619C105.742 23.2321 106.847 24.0971 109.549 24.7592L111.859 25.3219C116.161 26.3308 117.948 28.0446 117.948 31.086C117.948 34.9764 114.824 37.413 109.854 37.413C105.205 37.413 102.065 35.0335 101.863 31.2725L105.075 31.2727ZM124.72 18.3183V21.9059H127.627V24.3702H124.72V32.728C124.72 34.0264 125.302 34.6314 126.58 34.6314C126.925 34.6255 127.27 34.6014 127.612 34.5594V37.0092C127.038 37.1156 126.454 37.1638 125.869 37.1529C122.775 37.1529 121.568 36.0002 121.568 33.0599V24.3702H119.345V21.9059H121.568V18.3183H124.72ZM129.31 29.487C129.31 24.7169 132.143 21.7195 136.56 21.7195C140.992 21.7195 143.812 24.7169 143.812 29.487C143.812 34.2701 141.007 37.2544 136.56 37.2544C132.115 37.2544 129.31 34.2701 129.31 29.487ZM140.615 29.487C140.615 26.2149 139.103 24.2835 136.56 24.2835C134.018 24.2835 132.507 26.2294 132.507 29.487C132.507 32.7722 134.018 34.6887 136.56 34.6887C139.103 34.6887 140.615 32.7722 140.615 29.487ZM146.399 21.9059H149.391V24.4863H149.464C149.666 23.6804 150.142 22.9681 150.812 22.4693C151.482 21.9705 152.304 21.7156 153.141 21.7473C153.502 21.746 153.863 21.785 154.216 21.8633V24.7741C153.759 24.6358 153.283 24.5723 152.806 24.5861C152.35 24.5677 151.896 24.6474 151.474 24.8197C151.052 24.992 150.673 25.2528 150.362 25.5842C150.052 25.9155 149.817 26.3096 149.674 26.7394C149.532 27.1692 149.485 27.6245 149.536 28.0741V37.0663H146.399V21.9059ZM168.682 32.6135C168.26 35.3657 165.558 37.2544 162.1 37.2544C157.653 37.2544 154.893 34.2996 154.893 29.5589C154.893 24.8036 157.668 21.7195 161.968 21.7195C166.198 21.7195 168.857 24.6008 168.857 29.1975V30.2637H158.061V30.4517C158.011 31.0097 158.081 31.5717 158.267 32.1006C158.453 32.6295 158.751 33.1131 159.14 33.5192C159.528 33.9254 160 34.2448 160.523 34.4563C161.046 34.6678 161.608 34.7666 162.173 34.746C162.914 34.8149 163.658 34.6446 164.294 34.2604C164.93 33.8762 165.425 33.2986 165.703 32.6135H168.682ZM158.076 28.0888H165.718C165.746 27.5871 165.669 27.0851 165.492 26.6142C165.316 26.1433 165.043 25.7137 164.691 25.3524C164.339 24.9911 163.915 24.7059 163.447 24.5146C162.978 24.3233 162.475 24.2302 161.968 24.241C161.457 24.238 160.951 24.3353 160.478 24.5275C160.005 24.7196 159.575 25.0027 159.214 25.3605C158.852 25.7182 158.565 26.1435 158.369 26.6118C158.174 27.0801 158.074 27.5821 158.076 28.0888ZM47.865 0.620584C48.5228 0.573757 49.1829 0.672314 49.7977 0.909148C50.4125 1.14598 50.9666 1.51519 51.4201 1.99013C51.8735 2.46508 52.2151 3.03392 52.42 3.65563C52.625 4.27734 52.6883 4.93642 52.6053 5.58532C52.6053 8.77726 50.8658 10.6122 47.865 10.6122H44.226V0.620416L47.865 0.620584ZM45.7908 9.19907H47.6902C48.1603 9.22691 48.6307 9.15046 49.0672 8.97527C49.5037 8.80008 49.8953 8.53057 50.2135 8.18635C50.5318 7.84214 50.7686 7.43188 50.9068 6.98544C51.045 6.53899 51.0811 6.06761 51.0125 5.60558C51.0761 5.14538 51.0364 4.67691 50.8961 4.23374C50.7557 3.79056 50.5183 3.38366 50.2008 3.04218C49.8833 2.7007 49.4936 2.43309 49.0595 2.25854C48.6255 2.08398 48.1579 2.0068 47.6902 2.03253H45.7908V9.19907ZM54.3729 6.83869C54.3251 6.34317 54.3822 5.84322 54.5406 5.37089C54.6991 4.89856 54.9553 4.46428 55.2929 4.09592C55.6304 3.72755 56.0419 3.43323 56.5009 3.23182C56.9599 3.03042 57.4562 2.92638 57.9581 2.92638C58.46 2.92638 58.9564 3.03042 59.4154 3.23182C59.8744 3.43323 60.2859 3.72755 60.6234 4.09592C60.961 4.46428 61.2172 4.89856 61.3757 5.37089C61.5341 5.84322 61.5912 6.34317 61.5434 6.83869C61.5923 7.33478 61.5359 7.83553 61.3779 8.30873C61.22 8.78193 60.964 9.21711 60.6263 9.58631C60.2886 9.9555 59.8768 10.2505 59.4173 10.4524C58.9578 10.6543 58.4607 10.7586 57.9581 10.7586C57.4556 10.7586 56.9585 10.6543 56.499 10.4524C56.0395 10.2505 55.6277 9.9555 55.29 9.58631C54.9523 9.21711 54.6963 8.78193 54.5383 8.30873C54.3804 7.83553 54.324 7.33478 54.3729 6.83869ZM60.0002 6.83869C60.0002 5.2042 59.2599 4.2484 57.9607 4.2484C56.6564 4.2484 55.9228 5.2042 55.9228 6.83869C55.9228 8.48623 56.6566 9.43467 57.9607 9.43467C59.2599 9.43467 60.0002 8.4797 60.0002 6.83869ZM71.0753 10.612H69.5186L67.9474 5.05869H67.8287L66.2641 10.612H64.7225L62.6269 3.07172H64.1486L65.5106 8.82532H65.6227L67.1858 3.07172H68.6252L70.1883 8.82532H70.307L71.6622 3.07172H73.1627L71.0753 10.612ZM74.9252 3.07189H76.3696V4.26966H76.4817C76.6719 3.83942 76.9927 3.47875 77.3994 3.23793C77.8061 2.99711 78.2784 2.88814 78.7505 2.92621C79.1205 2.89863 79.4919 2.95396 79.8373 3.08808C80.1828 3.22221 80.4934 3.43169 80.7461 3.70103C80.9988 3.97036 81.1872 4.29263 81.2973 4.64397C81.4074 4.99531 81.4363 5.36671 81.382 5.73067V10.6118H79.8816V6.10442C79.8816 4.89275 79.3506 4.29009 78.241 4.29009C77.9898 4.27851 77.7391 4.32092 77.506 4.41441C77.273 4.5079 77.063 4.65027 76.8906 4.83175C76.7182 5.01324 76.5874 5.22955 76.5071 5.46586C76.4268 5.70218 76.3991 5.95291 76.4256 6.20087V10.612H74.9252V3.07189ZM83.7728 0.12828H85.2731V10.612H83.7728V0.12828ZM87.3589 6.83869C87.3111 6.3431 87.3683 5.84308 87.5267 5.37069C87.6852 4.89829 87.9414 4.46396 88.279 4.09555C88.6167 3.72713 89.0282 3.43277 89.4873 3.23134C89.9463 3.0299 90.4427 2.92585 90.9447 2.92585C91.4467 2.92585 91.9431 3.0299 92.4022 3.23134C92.8612 3.43277 93.2727 3.72713 93.6104 4.09555C93.948 4.46396 94.2042 4.89829 94.3627 5.37069C94.5211 5.84308 94.5783 6.3431 94.5305 6.83869C94.5791 7.33471 94.5225 7.83532 94.3644 8.30837C94.2063 8.78142 93.9502 9.21644 93.6125 9.58547C93.2748 9.95451 92.863 10.2494 92.4036 10.4512C91.9441 10.653 91.4472 10.7573 90.9447 10.7573C90.4422 10.7573 89.9453 10.653 89.4858 10.4512C89.0264 10.2494 88.6146 9.95451 88.2769 9.58547C87.9392 9.21644 87.6831 8.78142 87.525 8.30837C87.3669 7.83532 87.3103 7.33471 87.3589 6.83869ZM92.9863 6.83869C92.9863 5.2042 92.2459 4.2484 90.9467 4.2484C89.6425 4.2484 88.9089 5.2042 88.9089 6.83869C88.9089 8.48623 89.6426 9.43467 90.9467 9.43467C92.2459 9.43467 92.9863 8.4797 92.9863 6.83869ZM96.11 8.4797C96.11 7.12235 97.1289 6.33985 98.9377 6.22867L100.997 6.11095V5.46007C100.997 4.66367 100.466 4.21407 99.4406 4.21407C98.603 4.21407 98.0226 4.519 97.8561 5.05216H96.4034C96.5567 3.75693 97.7852 2.92638 99.5098 2.92638C101.416 2.92638 102.491 3.86745 102.491 5.46007V10.612H101.046V9.55239H100.928C100.687 9.93248 100.348 10.2423 99.9473 10.4503C99.5461 10.6583 99.0964 10.757 98.6442 10.7363C98.3251 10.7692 98.0025 10.7354 97.6973 10.6371C97.3921 10.5388 97.1111 10.3782 96.8723 10.1656C96.6335 9.953 96.4424 9.69313 96.311 9.40276C96.1797 9.11238 96.1112 8.79794 96.11 8.4797ZM100.997 7.83535V7.2049L99.1404 7.32262C98.0935 7.39211 97.6185 7.74543 97.6185 8.41004C97.6185 9.08872 98.2122 9.48374 99.0283 9.48374C99.2675 9.50775 99.5091 9.4838 99.7387 9.41332C99.9683 9.34284 100.181 9.22726 100.365 9.07347C100.549 8.91967 100.699 8.73081 100.808 8.51811C100.916 8.3054 100.981 8.07321 100.997 7.83535ZM104.463 6.83869C104.463 4.45604 105.698 2.94681 107.619 2.94681C108.094 2.92508 108.565 3.03794 108.978 3.27219C109.391 3.50645 109.728 3.85242 109.95 4.26966H110.062V0.128113H111.563V10.6118H110.125V9.42044H110.006C109.767 9.83487 109.418 10.1765 108.997 10.4084C108.577 10.6404 108.1 10.7537 107.619 10.7361C105.685 10.7361 104.463 9.2267 104.463 6.83852V6.83869ZM106.013 6.83869C106.013 8.43784 106.773 9.40034 108.044 9.40034C109.309 9.40034 110.09 8.42411 110.09 6.84505C110.09 5.2737 109.3 4.28356 108.044 4.28356C106.781 4.28356 106.013 5.25243 106.013 6.83869ZM117.77 6.83869C117.723 6.34317 117.78 5.84322 117.938 5.37089C118.097 4.89856 118.353 4.46428 118.69 4.09592C119.028 3.72755 119.439 3.43323 119.898 3.23182C120.357 3.03042 120.854 2.92638 121.356 2.92638C121.858 2.92638 122.354 3.03042 122.813 3.23182C123.272 3.43323 123.683 3.72755 124.021 4.09592C124.359 4.46428 124.615 4.89856 124.773 5.37089C124.932 5.84322 124.989 6.34317 124.941 6.83869C124.99 7.33478 124.933 7.83553 124.775 8.30873C124.617 8.78193 124.361 9.21711 124.024 9.58631C123.686 9.9555 123.274 10.2505 122.815 10.4524C122.355 10.6543 121.858 10.7586 121.356 10.7586C120.853 10.7586 120.356 10.6543 119.897 10.4524C119.437 10.2505 119.025 9.9555 118.688 9.58631C118.35 9.21711 118.094 8.78193 117.936 8.30873C117.778 7.83553 117.722 7.33478 117.77 6.83869ZM123.398 6.83869C123.398 5.2042 122.657 4.2484 121.358 4.2484C120.054 4.2484 119.32 5.2042 119.32 6.83869C119.32 8.48623 120.054 9.43467 121.358 9.43467C122.657 9.43467 123.398 8.4797 123.398 6.83869ZM126.954 3.07189H128.399V4.26966H128.511C128.701 3.83942 129.022 3.47875 129.428 3.23793C129.835 2.99711 130.307 2.88814 130.779 2.92621C131.149 2.89863 131.521 2.95396 131.866 3.08808C132.212 3.22221 132.522 3.43169 132.775 3.70103C133.028 3.97036 133.216 4.29263 133.326 4.64397C133.436 4.99531 133.465 5.36671 133.411 5.73067V10.6118H131.911V6.10442C131.911 4.89275 131.38 4.29009 130.27 4.29009C130.019 4.27851 129.768 4.32092 129.535 4.41441C129.302 4.5079 129.092 4.65027 128.92 4.83175C128.747 5.01324 128.616 5.22955 128.536 5.46586C128.456 5.70218 128.428 5.95291 128.455 6.20087V10.612H126.954L126.954 3.07189ZM141.889 1.1946V3.10622H143.536V4.35958H141.889V8.23673C141.889 9.0266 142.217 9.37255 142.964 9.37255C143.155 9.37189 143.346 9.36037 143.536 9.33805V10.5777C143.267 10.6255 142.994 10.6509 142.72 10.6537C141.052 10.6537 140.387 10.0715 140.387 8.61785V4.35958H139.18V3.10605H140.387V1.19477L141.889 1.1946ZM145.586 0.12828H147.073V4.28356H147.192C147.391 3.84931 147.721 3.48661 148.136 3.24488C148.55 3.00315 149.03 2.89415 149.51 2.93274C149.878 2.91287 150.246 2.97381 150.587 3.1112C150.929 3.24858 151.236 3.45904 151.486 3.72754C151.736 3.99604 151.923 4.31598 152.034 4.66452C152.145 5.01306 152.177 5.38162 152.128 5.7439V10.612H150.626V6.11095C150.626 4.90648 150.061 4.29662 149.001 4.29662C148.743 4.27566 148.483 4.31083 148.24 4.39968C147.998 4.48852 147.778 4.62889 147.595 4.81097C147.413 4.99305 147.273 5.21243 147.185 5.45379C147.097 5.69514 147.063 5.95263 147.086 6.20824V10.612H145.586V0.12828ZM160.877 8.57599C160.673 9.26514 160.231 9.86127 159.629 10.2601C159.027 10.6589 158.302 10.835 157.583 10.7575C157.082 10.7706 156.584 10.6755 156.124 10.4787C155.664 10.2819 155.252 9.98817 154.918 9.61788C154.584 9.24758 154.335 8.8096 154.189 8.33434C154.042 7.85908 154.002 7.35792 154.071 6.86565C154.004 6.37185 154.045 5.86959 154.191 5.39288C154.337 4.91617 154.584 4.47615 154.917 4.10259C155.249 3.72904 155.659 3.43068 156.117 3.22772C156.576 3.02476 157.074 2.92194 157.576 2.92621C159.691 2.92621 160.968 4.35958 160.968 6.72733V7.2466H155.599V7.32999C155.576 7.60669 155.611 7.88521 155.702 8.14768C155.793 8.41016 155.939 8.6508 156.13 8.85418C156.32 9.05755 156.552 9.21918 156.809 9.32869C157.066 9.4382 157.344 9.49318 157.624 9.4901C157.983 9.53284 158.346 9.46875 158.668 9.30598C158.99 9.1432 159.256 8.8891 159.432 8.57599H160.877ZM155.599 6.14611H159.439C159.458 5.89305 159.423 5.63886 159.337 5.39989C159.251 5.16091 159.116 4.94242 158.94 4.75847C158.763 4.57451 158.55 4.42916 158.314 4.33174C158.078 4.23432 157.823 4.187 157.568 4.1928C157.308 4.18956 157.051 4.23788 156.81 4.33491C156.57 4.43193 156.352 4.5757 156.168 4.75775C155.985 4.93979 155.84 5.15642 155.742 5.39486C155.644 5.63331 155.596 5.88874 155.599 6.14611Z" fill="white"/>
</svg>
