<svg width="15" height="16" viewBox="0 0 15 16" fill="none" xmlns="http://www.w3.org/2000/svg">
<path d="M7.49798 4.23844C5.36846 4.23844 3.64983 5.95711 3.64983 8.08667C3.64983 10.2162 5.36846 11.9349 7.49798 11.9349C9.62751 11.9349 11.3461 10.2162 11.3461 8.08667C11.3461 5.95711 9.62751 4.23844 7.49798 4.23844ZM7.49798 10.5877C6.12083 10.5877 4.99697 9.46385 4.99697 8.08667C4.99697 6.70949 6.12083 5.58561 7.49798 5.58561C8.87514 5.58561 9.999 6.70949 9.999 8.08667C9.999 9.46385 8.87514 10.5877 7.49798 10.5877ZM11.5037 3.18398C11.0065 3.18398 10.605 3.5855 10.605 4.08271C10.605 4.57993 11.0065 4.98145 11.5037 4.98145C12.0009 4.98145 12.4025 4.5818 12.4025 4.08271C12.4026 3.96465 12.3795 3.84772 12.3343 3.73861C12.2892 3.6295 12.223 3.53037 12.1396 3.44688C12.0561 3.3634 11.9569 3.29721 11.8478 3.25209C11.7387 3.20698 11.6218 3.18383 11.5037 3.18398V3.18398ZM14.9992 8.08667C14.9992 7.05097 15.0085 6.02465 14.9504 4.99083C14.8922 3.79002 14.6183 2.7243 13.7402 1.8462C12.8603 0.966234 11.7964 0.694175 10.5956 0.636011C9.55996 0.577847 8.53366 0.587228 7.49986 0.587228C6.46418 0.587228 5.43788 0.577847 4.40408 0.636011C3.20329 0.694175 2.13759 0.96811 1.25951 1.8462C0.379557 2.72617 0.107503 3.79002 0.0493401 4.99083C-0.00882312 6.02653 0.000558074 7.05285 0.000558074 8.08667C0.000558074 9.12049 -0.00882312 10.1487 0.0493401 11.1825C0.107503 12.3833 0.381433 13.449 1.25951 14.3271C2.13946 15.2071 3.20329 15.4792 4.40408 15.5373C5.43976 15.5955 6.46606 15.5861 7.49986 15.5861C8.53554 15.5861 9.56184 15.5955 10.5956 15.5373C11.7964 15.4792 12.8621 15.2052 13.7402 14.3271C14.6202 13.4472 14.8922 12.3833 14.9504 11.1825C15.0104 10.1487 14.9992 9.12237 14.9992 8.08667V8.08667ZM13.3481 12.5109C13.2111 12.8524 13.046 13.1076 12.7815 13.3702C12.5169 13.6348 12.2636 13.7999 11.9221 13.9369C10.9352 14.329 8.59183 14.2408 7.49798 14.2408C6.40414 14.2408 4.05885 14.329 3.07195 13.9387C2.73048 13.8018 2.47531 13.6367 2.21264 13.3721C1.94809 13.1076 1.78298 12.8543 1.64601 12.5128C1.25576 11.524 1.34394 9.18053 1.34394 8.08667C1.34394 6.99281 1.25576 4.64747 1.64601 3.66055C1.78298 3.31907 1.94809 3.0639 2.21264 2.80122C2.47719 2.53855 2.73048 2.37156 3.07195 2.23459C4.05885 1.84433 6.40414 1.93251 7.49798 1.93251C8.59183 1.93251 10.9371 1.84433 11.924 2.23459C12.2655 2.37156 12.5207 2.53667 12.7833 2.80122C13.0479 3.06578 13.213 3.31907 13.35 3.66055C13.7402 4.64747 13.652 6.99281 13.652 8.08667C13.652 9.18053 13.7402 11.524 13.3481 12.5109Z" fill="#FAFAFA"/>
</svg>
