<svg width="19" height="19" viewBox="0 0 19 19" fill="none" xmlns="http://www.w3.org/2000/svg">
<path d="M2.188 4.376C3.3964 4.376 4.376 3.3964 4.376 2.188C4.376 0.979601 3.3964 0 2.188 0C0.979601 0 0 0.979601 0 2.188C0 3.3964 0.979601 4.376 2.188 4.376Z" fill="#FAFAFA"/>
<path d="M6.44229 6.0334V18.1724H10.2113V12.1694C10.2113 10.5854 10.5093 9.0514 12.4733 9.0514C14.4103 9.0514 14.4343 10.8624 14.4343 12.2694V18.1734H18.2053V11.5164C18.2053 8.2464 17.5013 5.7334 13.6793 5.7334C11.8443 5.7334 10.6143 6.7404 10.1113 7.6934H10.0603V6.0334H6.44229V6.0334ZM0.300293 6.0334H4.07529V18.1724H0.300293V6.0334Z" fill="#FAFAFA"/>
</svg>
