<svg width="183" height="25" viewBox="0 0 183 25" fill="none" xmlns="http://www.w3.org/2000/svg">
<path d="M15.4545 11.5227C15.0227 8.30682 12.4318 6.31818 8.02273 6.31818C3.55682 6.31818 0.613636 8.38636 0.625 11.75C0.613636 14.3636 2.26136 16.0568 5.67045 16.7386L8.69318 17.3409C10.2159 17.6477 10.9091 18.2045 10.9318 19.0795C10.9091 20.1136 9.78409 20.8523 8.09091 20.8523C6.36364 20.8523 5.21591 20.1136 4.92045 18.6932L0.159091 18.9432C0.613636 22.2841 3.45455 24.3409 8.07955 24.3409C12.6023 24.3409 15.8409 22.0341 15.8523 18.5909C15.8409 16.0682 14.1932 14.5568 10.8068 13.8636L7.64773 13.2273C6.02273 12.875 5.42045 12.3182 5.43182 11.4773C5.42045 10.4318 6.60227 9.75 8.10227 9.75C9.78409 9.75 10.7841 10.6705 11.0227 11.7955L15.4545 11.5227ZM18.9006 24H23.7415V13.5227C23.7415 11.5909 24.9688 10.3068 26.5824 10.3068C28.1733 10.3068 29.2415 11.3977 29.2415 13.1136V24H33.9347V13.3409C33.9347 11.5341 34.9688 10.3068 36.7301 10.3068C38.2756 10.3068 39.4347 11.2727 39.4347 13.2159V24H44.2642V12.2614C44.2642 8.47727 42.0142 6.31818 38.7642 6.31818C36.2074 6.31818 34.2188 7.625 33.5028 9.625H33.321C32.7642 7.60227 30.9801 6.31818 28.5824 6.31818C26.2301 6.31818 24.446 7.56818 23.7188 9.625H23.5142V6.54545H18.9006V24ZM53.0653 24.3295C55.6449 24.3295 57.3153 23.2045 58.1676 21.5795H58.304V24H62.8949V12.2273C62.8949 8.06818 59.3722 6.31818 55.4858 6.31818C51.304 6.31818 48.554 8.31818 47.8835 11.5L52.3608 11.8636C52.6903 10.7045 53.7244 9.85227 55.4631 9.85227C57.1108 9.85227 58.054 10.6818 58.054 12.1136V12.1818C58.054 13.3068 56.8608 13.4545 53.8267 13.75C50.3722 14.0682 47.2699 15.2273 47.2699 19.125C47.2699 22.5795 49.7358 24.3295 53.0653 24.3295ZM54.4517 20.9886C52.9631 20.9886 51.8949 20.2955 51.8949 18.9659C51.8949 17.6023 53.0199 16.9318 54.7244 16.6932C55.7812 16.5455 57.5085 16.2955 58.0881 15.9091V17.7614C58.0881 19.5909 56.5767 20.9886 54.4517 20.9886ZM66.6506 24H71.4915V14.125C71.4915 11.9773 73.0597 10.5 75.196 10.5C75.8665 10.5 76.7869 10.6136 77.2415 10.7614V6.46591C76.8097 6.36364 76.2074 6.29545 75.7188 6.29545C73.7642 6.29545 72.1619 7.43182 71.5256 9.59091H71.3438V6.54545H66.6506V24ZM89.9034 6.54545H86.6193V2.36364H81.7784V6.54545H79.392V10.1818H81.7784V19.2727C81.7557 22.6932 84.0852 24.3864 87.5966 24.2386C88.8466 24.1932 89.733 23.9432 90.2216 23.7841L89.4602 20.1818C89.2216 20.2273 88.7102 20.3409 88.2557 20.3409C87.2898 20.3409 86.6193 19.9773 86.6193 18.6364V10.1818H89.9034V6.54545ZM93.5227 24H98.4432V14.3864H108.432V24H113.341V0.727272H108.432V10.3295H98.4432V0.727272H93.5227V24ZM125.193 24.3409C130.489 24.3409 133.784 20.7159 133.784 15.3409C133.784 9.93182 130.489 6.31818 125.193 6.31818C119.898 6.31818 116.602 9.93182 116.602 15.3409C116.602 20.7159 119.898 24.3409 125.193 24.3409ZM125.216 20.5909C122.773 20.5909 121.523 18.3523 121.523 15.3068C121.523 12.2614 122.773 10.0114 125.216 10.0114C127.614 10.0114 128.864 12.2614 128.864 15.3068C128.864 18.3523 127.614 20.5909 125.216 20.5909ZM136.932 24H141.773V13.5227C141.773 11.5909 143 10.3068 144.614 10.3068C146.205 10.3068 147.273 11.3977 147.273 13.1136V24H151.966V13.3409C151.966 11.5341 153 10.3068 154.761 10.3068C156.307 10.3068 157.466 11.2727 157.466 13.2159V24H162.295V12.2614C162.295 8.47727 160.045 6.31818 156.795 6.31818C154.239 6.31818 152.25 7.625 151.534 9.625H151.352C150.795 7.60227 149.011 6.31818 146.614 6.31818C144.261 6.31818 142.477 7.56818 141.75 9.625H141.545V6.54545H136.932V24ZM174.074 24.3409C178.392 24.3409 181.301 22.2386 181.983 19L177.506 18.7045C177.017 20.0341 175.767 20.7273 174.153 20.7273C171.733 20.7273 170.199 19.125 170.199 16.5227V16.5114H182.085V15.1818C182.085 9.25 178.494 6.31818 173.881 6.31818C168.744 6.31818 165.415 9.96591 165.415 15.3523C165.415 20.8864 168.699 24.3409 174.074 24.3409ZM170.199 13.5114C170.301 11.5227 171.812 9.93182 173.96 9.93182C176.062 9.93182 177.517 11.4318 177.528 13.5114H170.199Z" fill="#FAFAFA"/>
</svg>
