<svg width="17" height="16" viewBox="0 0 17 16" fill="none" xmlns="http://www.w3.org/2000/svg">
<path d="M17 2.36848C16.3748 2.66138 15.6945 2.87218 14.9938 2.95428C15.7213 2.48483 16.2661 1.74319 16.526 0.868484C15.8433 1.30958 15.0954 1.61889 14.3155 1.78268C13.9895 1.40419 13.5952 1.10267 13.1573 0.896903C12.7193 0.691136 12.247 0.585534 11.7699 0.586679C9.8392 0.586679 8.2865 2.28638 8.2865 4.37218C8.2865 4.66508 8.31919 4.95798 8.37231 5.23978C5.48143 5.07558 2.90314 3.57558 1.18904 1.27899C0.876713 1.85838 0.713043 2.5181 0.715058 3.18949C0.715058 4.5031 1.33001 5.66138 2.26776 6.34259C1.71513 6.31895 1.17544 6.15398 0.692585 5.86108V5.90768C0.692585 7.74718 1.8898 9.27159 3.4854 9.62218C3.18581 9.7067 2.87761 9.74994 2.56808 9.75088C2.34131 9.75088 2.12679 9.72647 1.91023 9.69318C2.35152 11.1932 3.63658 12.2827 5.16681 12.3182C3.96959 13.3367 2.47002 13.9358 0.841726 13.9358C0.549573 13.9358 0.279894 13.9247 0 13.8892C1.54453 14.9654 3.37712 15.5867 5.35068 15.5867C11.7576 15.5867 15.2634 9.82188 15.2634 4.81819C15.2634 4.65398 15.2634 4.48978 15.2532 4.32558C15.9315 3.78638 16.526 3.11848 17 2.36848Z" fill="#FAFAFA"/>
</svg>
