<svg width="208" height="104" viewBox="0 0 208 104" fill="none" xmlns="http://www.w3.org/2000/svg">
<path opacity="0.1" d="M200.083 64.2009C205.31 76.8188 208 90.3425 208 104L138.943 104C138.943 99.4112 138.04 94.8672 136.284 90.6277C134.527 86.3882 131.954 82.536 128.709 79.2912C125.464 76.0464 121.612 73.4725 117.372 71.7164C113.133 69.9604 108.589 69.0565 104 69.0565C99.4112 69.0565 94.8673 69.9604 90.6277 71.7164C86.3882 73.4725 82.536 76.0464 79.2912 79.2912C76.0464 82.536 73.4725 86.3882 71.7164 90.6277C69.9604 94.8672 69.0565 99.4112 69.0565 104L-4.54598e-06 104C-3.949e-06 90.3425 2.69006 76.8188 7.91652 64.2009C13.143 51.5831 20.8036 40.1182 30.4609 30.4609C40.1182 20.8036 51.5831 13.143 64.2009 7.91652C76.8188 2.69002 90.3425 -1.42631e-05 104 -4.54596e-06C117.657 -3.94897e-06 131.181 2.69003 143.799 7.91652C156.417 13.143 167.882 20.8036 177.539 30.4609C187.196 40.1182 194.857 51.5831 200.083 64.2009Z" fill="white"/>
</svg>
